<?xml version="1.0" encoding="UTF-8" standalone="no"?>
<!-- Created with Inkscape (http://www.inkscape.org/) -->

<svg
   xmlns:dc="http://purl.org/dc/elements/1.1/"
   xmlns:cc="http://creativecommons.org/ns#"
   xmlns:rdf="http://www.w3.org/1999/02/22-rdf-syntax-ns#"
   xmlns:svg="http://www.w3.org/2000/svg"
   xmlns="http://www.w3.org/2000/svg"
   xmlns:xlink="http://www.w3.org/1999/xlink"
   xmlns:sodipodi="http://sodipodi.sourceforge.net/DTD/sodipodi-0.dtd"
   xmlns:inkscape="http://www.inkscape.org/namespaces/inkscape"
   width="1920"
   height="1080"
   viewBox="0 0 1920 1080"
   id="svg2"
   version="1.1"
   inkscape:version="0.92.2 5c3e80d, 2017-08-06"
   inkscape:export-filename="C:\Users\Cristian\Desktop\wall-HD.png"
   inkscape:export-xdpi="90"
   inkscape:export-ydpi="90"
   sodipodi:docname="Hd-Background.svg">
  <defs
     id="defs4">
    <pattern
       inkscape:collect="always"
       xlink:href="#Checkerboardwhite"
       id="pattern3765"
       patternTransform="matrix(10,0,0,10,4.4335937e-6,-2.113647e-6)" />
    <pattern
       inkscape:stockid="Checkerboard white"
       id="Checkerboardwhite"
       patternTransform="translate(0,0) scale(10,10)"
       height="2"
       width="2"
       patternUnits="userSpaceOnUse"
       inkscape:collect="always">
      <rect
         id="rect4982"
         height="1"
         width="1"
         y="0"
         x="0"
         style="fill:white;stroke:none" />
      <rect
         id="rect4984"
         height="1"
         width="1"
         y="1"
         x="1"
         style="fill:white;stroke:none" />
    </pattern>
    <filter
       inkscape:collect="always"
       style="color-interpolation-filters:sRGB"
       id="filter4177"
       x="-0.10746413"
       width="1.2149283"
       y="-0.29263594"
       height="1.5852719">
      <feGaussianBlur
         inkscape:collect="always"
         stdDeviation="85.412875"
         id="feGaussianBlur4179" />
    </filter>
  </defs>
  <sodipodi:namedview
     id="base"
     pagecolor="#ffffff"
     bordercolor="#666666"
     borderopacity="1.0"
     inkscape:pageopacity="0.0"
     inkscape:pageshadow="2"
     inkscape:zoom="0.35"
     inkscape:cx="1018.9545"
     inkscape:cy="548.14966"
     inkscape:document-units="px"
     inkscape:current-layer="layer1"
     showgrid="false"
     units="px"
     borderlayer="true"
     inkscape:window-width="1440"
     inkscape:window-height="856"
     inkscape:window-x="0"
     inkscape:window-y="0"
     inkscape:window-maximized="1" />
  <metadata
     id="metadata7">
    <rdf:RDF>
      <cc:Work
         rdf:about="">
        <dc:format>image/svg+xml</dc:format>
        <dc:type
           rdf:resource="http://purl.org/dc/dcmitype/StillImage" />
        <dc:title />
      </cc:Work>
    </rdf:RDF>
  </metadata>
  <g
     inkscape:label="Livello 1"
     inkscape:groupmode="layer"
     id="layer1"
     transform="translate(0,27.637839)">
    <rect
       style="opacity:0;fill:#000000;fill-opacity:1;fill-rule:evenodd;stroke:#ea8334;stroke-width:1.21200001;stroke-miterlimit:10;stroke-dasharray:none;stroke-opacity:0.15246636"
       id="rect4138"
       width="1011.4286"
       height="505.71429"
       x="-42.857143"
       y="-410.495"
       rx="2.3759699"
       ry="6.9510798" />
    <rect
       style="opacity:1;fill:#051c2f;fill-opacity:1;fill-rule:evenodd;stroke:#ea8334;stroke-width:1.21200001;stroke-miterlimit:10;stroke-dasharray:none;stroke-opacity:0.15246636"
       id="rect4155"
       width="1920"
       height="1080"
       x="0"
       y="-27.637838" />
    <path
       style="opacity:1;fill:#8abfe4;fill-opacity:0.13004485;fill-rule:evenodd;stroke:#ea8334;stroke-width:4.18355799;stroke-miterlimit:10;stroke-dasharray:none;stroke-opacity:0.15246636;filter:url(#filter4177)"
       d="M 7.3032034,-21.352683 C 5.1303204,-10.973888 6.1182094,-9.200542 7.7914854,-8.00112 11.57905,-5.286118 226.86535,150.43237 486.20555,338.03989 745.5457,525.64744 958.2051,679.14536 958.78172,679.14536 c 0.74177,0 849.84428,-618.697104 946.51958,-689.679683 l 8.2813,-6.080078 -1.5508,-4.738282 -1904.7285966,0 z"
       id="path4150"
       inkscape:connector-curvature="0" />
    <rect
       y="-27.637838"
       x="0"
       height="1080"
       width="1920"
       id="rect4181"
       style="opacity:0.05899999;fill:url(#pattern3765);fill-opacity:1;fill-rule:evenodd;stroke:#ea8334;stroke-width:1.21200001;stroke-miterlimit:10;stroke-dasharray:none;stroke-opacity:0.15246636" />
    <path
       style="fill:#999999"
       id="path24"
       d="m 383.0587,139.00311 c -10.03146,3.51459 -20.12699,5.17852 -30.71589,4.81065 -8.11269,0.20409 -16.00847,2.28151 -23.86025,4.13358 -6.73574,0.44964 -12.94965,2.68462 -19.69008,3.1746 -1.68718,4.09042 -5.58061,1.8807 -8.95973,2.69778 -0.86358,0.20881 -1.55045,0.88132 -2.37921,1.20153 -0.8764,0.33862 -1.80841,0.51055 -2.71261,0.76582 -6.92784,1.68095 -13.71552,4.52882 -20.18991,7.61638 -1.17555,0.72281 -2.30038,1.53547 -3.52665,2.16842 -3.18217,1.64253 -6.53918,2.97075 -9.73935,4.56443 -1.02022,0.50807 -3.9085,2.34624 -2.91982,1.77922 42.80833,-24.55141 85.58654,-49.15531 128.37981,-73.732959 -44.70492,25.787569 -89.28825,51.787089 -134.11477,77.362709 -0.90357,0.51553 -3.8967,1.39082 -2.99814,0.86661 42.39922,-24.73521 84.96604,-49.18295 127.58005,-73.54626 7.57042,-4.328169 -6.21798,4.17245 -7.56927,4.88396 -4.98696,3.0286 -9.60725,6.4422 -14.35728,9.86928 -3.73227,2.22823 -6.21276,5.80561 -9.40755,8.63708 -7.19066,6.37293 1.1056,-1.7697 -5.38698,4.76418 -0.58602,1.06789 -0.94545,2.29621 -1.75807,3.20366 -1.74609,1.94987 -4.1997,3.15502 -6.0462,5.01008 -2.75777,2.77056 -5.00665,5.67246 -8.04125,8.16498 -4.46813,4.62426 -8.62983,9.47336 -13.08766,14.09599 -0.98287,3.69959 -3.94048,5.2492 -6.35994,7.76836 -2.01028,2.09311 -3.31591,4.76564 -5.24369,6.95681 -4.97153,5.57523 1.30176,-1.99503 -2.96088,5.25286 -0.49572,0.84289 -1.43541,1.34454 -2.01465,2.13238 -1.87751,2.55363 -2.84751,5.46477 -4.78047,7.99595 -0.76427,2.66748 -3.18614,4.31846 -4.48247,6.63982 -1.31521,2.35519 -2.33276,5.01305 -3.61656,7.42012 -0.32807,1.28095 -0.42328,2.64542 -0.98423,3.84283 -0.6974,1.48869 -2.3636,2.35212 -3.14663,3.79761 -1.14009,2.10462 -1.9089,4.30184 -3.15433,6.38505 -2.74709,3.2422 -0.98529,3.16578 -1.97071,6.97827 -0.22899,0.88591 -2.51369,2.58419 -3.21351,3.33283 0.25952,3.54247 -2.12363,6.32608 -3.9863,9.11185 -0.68613,1.44374 0.95408,3.2098 0.37883,4.65721 -0.18007,0.45306 -3.47192,2.14676 -4.02023,2.09202 -1.81903,1.66227 -1.03484,2.17867 -0.0169,4.1246 0.51432,4.49306 0.007,8.92713 -0.13961,13.44239 -3.17892,3.94044 -2.46086,8.86344 -3.86708,13.35368 -1.13729,4.05522 -2.76104,8.03155 -3.03684,12.25508 0.95671,5.32986 -0.34238,9.98534 -1.71892,15.03374 -0.28719,0.70908 -0.71661,1.37606 -0.86158,2.12723 -0.24132,1.25049 0.1777,2.54114 0.23852,3.81325 0.12832,2.68365 0.1661,4.94609 -0.35139,7.59275 -0.15757,4.7643 -0.6564,9.41962 -2.01165,13.96907 -1.33881,2.87924 -1.8954,6.09809 -1.62527,9.25747 1.27288,3.09948 -0.35871,5.81181 -0.42265,8.31508 -0.0343,1.34207 0.64454,2.60778 0.89763,3.92622 -0.77728,3.95901 0.004,8.46932 -1.87318,12.05767 0.86557,3.32131 0.29776,6.70553 0.99514,10.09324 -0.0472,2.19535 1.32349,4.26132 1.63296,6.32737 0.58774,3.9237 -1.48775,3.42029 0.24022,7.8242 1.35234,6.3202 -0.014,12.76853 0.88212,19.10799 -1.02519,6.93224 1.08083,13.6749 -0.24061,20.59062 0.0804,3.05192 -1.161,6.09333 -1.38558,9.06832 -0.0628,0.83189 0.31335,1.65046 0.30083,2.48462 -0.0252,1.6767 -0.40736,3.33257 -0.47681,5.00803 -0.97648,1.32491 -0.21871,2.93395 -0.61743,4.3396 -0.19549,0.68919 -0.87679,1.19087 -1.01669,1.89346 -0.005,0.026 0.18623,2.6709 0.122,3.13945 3.25428,4.17408 3.08725,9.49729 4.82034,14.35612 1.26589,6.31262 0.86727,12.80384 0.70551,19.19976 0.18859,3.93726 -0.57383,7.95852 -0.23736,11.88945 0.50765,5.93078 0.90225,-0.13058 0.16757,6.12554 0.30876,1.02585 0.81688,2.01183 0.92628,3.07754 0.12047,1.1735 -0.35853,2.35583 -0.24795,3.53031 0.11255,1.1953 0.72643,2.2986 0.9085,3.48531 0.62514,4.07463 0.70976,8.38952 1.16997,12.50063 -1.51535,4.28998 -0.22139,8.72979 -0.4554,13.06681 -0.0786,1.4567 -0.60542,2.86102 -0.73771,4.31382 -0.2373,2.60606 -0.087,5.23435 -0.23489,7.84701 -0.0996,1.25701 -0.29379,2.5101 -0.29872,3.77104 -0.005,1.21755 0.32777,2.42653 0.26976,3.64271 -0.20943,4.39111 -2.00581,8.47678 -1.69261,12.84925 -0.40195,2.8774 0.65821,5.7454 0.77351,8.54421 0.13262,3.21915 -0.60434,5.87704 -0.0934,9.14486 -0.86748,6.72145 -0.52069,-0.0285 0.54695,5.47349 0.2012,1.0369 -0.0385,2.12167 0.11549,3.16663 0.56045,3.80315 2.08492,7.66363 3.05768,11.37627 0.15134,6.23538 2.11657,12.24379 2.47225,18.46006 1.04352,18.23747 -1.34749,-9.41233 0.38369,9.31756 0.20847,1.64079 0.41694,3.28158 0.6254,4.92237 -0.13253,1.45996 -0.48794,2.91671 -0.39759,4.37989 0.10428,1.68885 0.8533,3.29391 0.97562,4.98154 0.10376,1.43157 -0.33505,2.8603 -0.30324,4.29526 0.0733,3.3074 0.66066,4.85192 1.47408,7.97552 0.17117,8.69025 -0.43039,-0.64024 1.53726,8.29467 0.82485,3.74557 -0.30103,3.73565 0.74308,7.48428 2.87565,10.32432 1.00222,-1.55306 2.20453,7.68255 0.60574,3.6238 1.26726,7.51805 2.63528,10.95514 0.55914,1.40482 1.46383,2.65221 2.05437,4.04412 0.54157,1.27648 0.88882,2.62694 1.33322,3.94041 0.6039,1.3245 1.20779,2.64899 1.81168,3.97349 0.73356,1.40666 1.59337,2.75439 2.20066,4.21999 6.21527,14.99942 -3.17013,-5.09905 3.51275,9.43955 1.46066,3.17766 3.55898,6.06373 4.77149,9.3441 0.59127,1.59963 0.73202,3.33134 1.09803,4.99701 0.56563,6.11407 5.04161,10.49597 7.05187,15.98282 2.7062,7.38633 -0.33981,1.71909 2.91717,7.19986 4.31467,4.03898 6.40474,10.11865 10.80136,14.058 1.04902,0.93992 2.30666,1.61704 3.45999,2.42556 2.78108,6.63489 9.08598,10.80459 14.28405,15.50017 2.20786,4.35482 6.754,6.58413 9.79952,10.13921 1.18354,1.38156 1.94704,3.07853 3.04356,4.53013 5.81189,4.41347 10.49925,10.18598 16.89071,13.71576 6.18852,4.31897 12.08249,9.00309 17.85139,13.8629 5.16705,4.43184 11.439,7.08765 17.10392,10.72995 5.3477,2.34518 10.19287,5.86672 15.81481,7.45453 6.31648,0.95231 12.0462,4.02574 18.38441,4.90691 1.21736,-0.0524 2.47887,-0.48617 3.65207,-0.15709 6.18568,1.73506 1.42052,2.3556 6.34407,3.13326 1.06696,0.16852 2.17398,-0.14424 3.24045,0.0274 2.90257,0.46709 5.1228,1.35027 7.78825,2.29945 8.17981,-0.28608 16.2278,1.23141 24.399,1.59132 1.08989,0.28483 2.14688,0.76329 3.26968,0.8545 4.41173,0.35838 9.05817,-0.43642 13.49374,-0.1916 9.14993,0.50503 -3.98436,1.09022 8.04924,0.20489 5.56437,0.71049 11.15229,-0.0385 16.73199,-0.0801 1.18578,-0.009 2.35924,0.24211 3.53887,0.36316 1.37616,-0.0133 2.75232,-0.0267 4.12849,-0.0401 2.68837,0.47003 5.38242,-0.13068 8.07042,-0.0231 1.87903,0.0752 4.05121,0.84067 5.95287,0.79485 10.69329,-0.25761 -0.59076,-0.9063 7.82702,-0.26887 8.249,0.7069 16.26204,-2.14229 23.59672,-5.62401 1.84664,-0.27151 3.74637,-0.29781 5.53991,-0.81453 1.24033,-0.35734 2.24679,-1.28697 3.44245,-1.77328 6.53742,-2.659 3.51648,-0.97472 9.77001,-2.74951 13.13357,-3.72738 -2.82904,0.10564 9.13483,-2.64895 7.90293,-5.28386 -1.22838,0.18596 8.01208,-3.2929 1.64277,-0.61847 2.97886,-1.91883 4.63602,-2.49761 1.6972,-0.59276 3.60286,-0.39424 5.30447,-0.9742 1.22753,-0.41838 2.16729,-1.44723 3.35147,-1.97602 1.64461,-0.73438 3.39741,-1.19744 5.09611,-1.79616 1.19174,-0.28143 2.458,-0.34299 3.5752,-0.84429 3.88743,-1.74432 7.17621,-4.96346 10.95166,-6.99963 1.37335,-0.74067 5.46261,-3.01837 4.11059,-2.23945 -43.54119,25.08453 -87.11946,50.10462 -130.67919,75.15694 8.26661,-4.58782 15.96917,-10.09604 24.25316,-14.63764 6.90286,-4.54297 11.91641,-11.12405 16.4325,-17.90401 5.6161,-8.002 10.87776,-16.14342 15.67771,-24.66296 5.56097,-7.3712 -0.48716,1.17462 4.40976,-7.67056 0.7056,-1.27453 1.84742,-2.2844 2.4895,-3.59208 0.64354,-1.31065 0.63512,-2.88815 1.32437,-4.17535 5.66953,-10.58802 1.0173,1.77307 4.02726,-6.92178 0.73437,-3.74247 2.99455,-6.90267 3.99519,-10.55245 0.28787,-1.04997 0.18876,-2.17915 0.45935,-3.23371 1.76034,-6.86062 1.25885,-0.67727 1.4135,-7.14464 1.23947,-4.16925 -0.0787,-8.6055 0.43098,-12.79826 0.17867,-1.46986 1.03991,-2.80374 1.20662,-4.275 0.33831,-2.98583 -0.40262,-5.99637 -0.6135,-8.99389 1.56213,-8.25738 3.48203,-16.43383 4.67219,-24.75724 -0.50255,-3.24234 1.70538,-6.0639 2.16171,-9.07168 0.11041,-0.72776 -0.2486,-1.46043 -0.22976,-2.19627 0.0401,-1.56591 0.51219,-2.87454 0.93639,-4.35268 -0.47601,-2.02029 -1.25118,-4.14288 -1.2467,-6.24745 0.002,-0.82732 0.36636,-1.63271 0.33399,-2.4594 -0.0655,-1.67384 -0.63669,-3.29212 -0.83625,-4.95532 0.17465,-5.38412 -0.75628,-10.39926 -2.03116,-15.59757 -1.91909,-5.64012 -3.73226,-11.29373 -5.52277,-16.98421 -1.29632,-3.58012 -3.22821,-7.16541 -3.46978,-11.00195 -0.0575,-0.91303 0.33326,-1.87279 0.054,-2.74397 -0.15633,-0.48772 -0.81939,-0.61469 -1.22908,-0.92203 -1.57337,-3.37914 -3.85336,-6.46496 -6.22117,-9.39111 -0.62737,-0.77531 -1.50745,-1.37358 -1.95539,-2.26468 -0.52635,-1.04711 -0.59498,-2.26715 -0.89247,-3.40072 -0.0931,-0.96862 0.12786,-2.02205 -0.27931,-2.90585 -0.30199,-0.6555 -1.27122,-0.76806 -1.68553,-1.35901 -0.71038,-1.01324 -0.94274,-2.30324 -1.61186,-3.34419 -0.40893,-0.63617 -1.21242,-0.96617 -1.5827,-1.62558 -2.53182,-4.50874 3.59782,1.91782 -2.22011,-3.46416 -0.32038,-1.01702 -0.43138,-2.12567 -0.96114,-3.05105 -0.30409,-0.53118 -1.0902,-0.63778 -1.43869,-1.14095 -1.91465,-2.76442 -2.60874,-6.02579 -5.4989,-7.93961 -0.89004,-1.38465 -3.05011,-1.40413 -4.02878,-2.68808 -0.52244,-0.68541 -0.36334,-1.76298 -0.92982,-2.41247 -2.7735,-3.17993 -4.73295,-0.84344 -6.08711,-6.16394 -4.96385,-3.05309 -8.80979,-7.39907 -13.32384,-11.08764 -2.15308,-2.39673 -5.34617,-2.56452 -8.08337,-3.74065 -4.06581,-1.74703 -6.04332,-2.75509 -10.35151,-4.26743 -2.20661,-0.70529 -3.70516,-2.67769 -5.78852,-3.57248 -0.88217,-0.37889 -1.94347,-0.0864 -2.8534,-0.39263 -1.40301,-0.47222 -2.58864,-1.49017 -4.00635,-1.91621 -1.09005,-0.32756 -2.3407,0.10541 -3.40055,-0.30962 -1.37332,-0.53777 -2.45105,-1.64112 -3.67657,-2.46169 -4.68515,-1.77129 -9.68331,-2.00373 -14.11694,-4.48731 -1.12741,-0.63155 -1.91952,-1.78842 -3.0835,-2.34973 -3.03594,-1.46403 -6.46219,-1.91888 -9.68627,-2.90152 -4.06235,-0.49433 -6.24391,-0.53809 -10.27688,-2.12191 -1.4104,-0.55389 -2.55054,-1.67194 -3.9546,-2.24171 -1.69443,-0.68761 -3.58141,-0.81607 -5.27571,-1.50401 -1.30094,-0.52822 -2.38388,-1.49293 -3.64179,-2.11674 -1.40827,-0.69838 -2.89409,-1.22806 -4.34113,-1.84208 -1.45572,-0.38502 -2.95797,-0.62449 -4.36718,-1.15506 -1.08441,-0.40829 -1.9998,-1.1833 -3.06359,-1.64265 -6.514,-2.81282 -1.46264,-0.2383 -8.2221,-2.16481 -9.41333,-2.68289 5.45434,-0.0338 -7.74791,-2.01224 -3.71535,-1.77531 -8.03584,-2.61614 -12.1627,-2.51279 -1.73986,0.0436 -3.45541,0.5621 -5.19528,0.51954 -3.41263,-0.0835 -6.76571,-0.93093 -10.16457,-1.24829 -2.02312,0.0441 -4.05302,0.30379 -6.06936,0.13245 -1.87756,-0.15955 -3.67237,-0.87725 -5.54111,-1.11907 -8.17251,-1.05753 -16.71886,-1.25518 -24.94358,-1.16234 -1.58716,-0.29702 -3.15346,-0.74415 -4.76148,-0.89108 -0.30062,-0.0275 -11.2007,-0.11878 -11.50638,-0.12106 -5.73337,-0.0429 -11.46683,-0.0577 -17.20033,-0.0715 -6.64111,-1.45428 -13.33615,-0.20654 -20.00869,-0.49331 -13.12334,-0.564 7.28986,-1.04353 -9.11285,-0.39211 -1.51146,-0.0561 -3.03175,0.004 -4.53438,-0.16835 -1.0655,-0.12232 -2.07328,-0.58045 -3.13763,-0.71245 -4.99762,-0.6198 -10.12141,-0.20248 -15.13882,-0.29329 -4.35687,-1.21134 -8.92214,-0.23877 -13.34971,-0.26941 -1.88935,-0.0131 -3.75729,-0.40692 -5.64052,-0.55948 -6.13447,0.11475 -12.58935,0.94172 -18.63652,-0.39121 -0.75015,-0.0727 -1.50029,-0.14533 -2.25044,-0.21799 -0.22426,-0.27416 -0.33033,-0.73199 -0.67278,-0.82249 -0.65944,-0.17428 -1.37216,0.22477 -2.04357,0.10459 -0.26949,-0.0483 -0.33033,-0.47787 -0.58617,-0.57533 -0.61982,-0.23613 -1.32553,-0.13562 -1.9656,-0.30952 -1.54283,0.13829 -1.26153,0.57005 -1.50554,-0.35106 0,0 115.62826,-84.00884 115.62826,-84.00884 v 0 c 1.76377,-0.58448 0.93305,-0.53418 2.47193,-0.35106 4.22202,-0.65625 8.29758,-1.25079 12.53067,-1.82069 6.50893,-0.89286 13.16573,-0.82182 19.71311,-0.39087 2.39533,-0.15863 4.77945,-0.54307 7.17998,-0.55939 4.68132,-0.0318 9.43754,0.87558 14.08859,-0.27121 5.31226,-0.0938 10.64394,0.19048 15.94705,-0.30635 1.71129,-0.16033 3.39385,-0.56766 5.10592,-0.7195 1.66326,-0.1475 3.33748,-0.1182 5.00623,-0.1773 11.45844,0.48346 -2.85619,0.11316 10.22512,-0.41419 7.15823,-0.28857 14.36774,0.86364 21.51578,-0.47912 11.95468,0.0942 23.8886,0.83353 35.8236,0.74388 11.03734,1.85314 22.14156,3.35011 33.03344,5.75381 3.14525,0.52613 6.36506,0.62553 9.47191,1.34447 1.52827,0.35364 2.94225,1.09264 4.43793,1.56551 1.57215,0.49705 3.20743,0.78986 4.76082,1.34275 1.20038,0.42724 2.25332,1.2322 3.47645,1.58909 1.39225,0.40624 2.86505,0.45285 4.29758,0.67927 8.373,3.55954 -1.94953,-0.47769 8.0214,2.14037 1.41945,0.37271 2.71312,1.12375 4.09793,1.60961 4.43645,1.55652 9.1537,1.48874 13.31032,3.87675 5.94307,2.04992 2.80845,1.17605 9.42806,2.5332 1.54199,0.48724 2.88701,1.49665 4.43306,1.97085 1.71645,0.52646 3.5666,0.50922 5.29028,1.01146 1.55058,0.4518 8.46235,3.63286 9.61777,4.15302 2.5917,1.51953 4.98398,3.44524 7.77284,4.56244 1.49279,0.598 3.16504,0.62914 4.68228,1.16201 4.15157,1.45809 7.73323,4.10224 11.00942,6.9638 7.15853,1.67855 12.79732,7.15528 20.18538,8.4015 4.29116,2.87333 9.45969,4.58517 13.41976,7.98945 0.9773,0.84014 1.60499,2.0195 2.47477,2.97051 0.74972,0.81973 1.58513,1.55674 2.3777,2.33511 2.28399,2.16313 3.95904,4.70027 6.2026,6.85954 2.84134,2.7346 1.38226,0.30952 4.33191,4.07063 0.56588,0.72157 0.95324,1.56681 1.42986,2.35021 5.71893,2.19295 2.76226,3.42037 5.65626,5.90083 0.678,0.58111 1.79021,0.41481 2.50453,0.95065 2.16309,1.62264 2.87877,3.48465 4.09762,5.73827 1.44037,3.01818 3.51856,5.1248 5.26702,7.98575 0.56507,0.9246 0.91205,1.99255 1.59988,2.82985 0.36001,0.43824 0.9684,0.59062 1.4526,0.88593 1.92843,3.52425 0.64127,1.8627 4.07389,4.8126 2.07313,2.97956 1.16812,7.60771 4.8285,9.32292 4.69529,3.71272 6.55631,10.74753 8.30285,16.27445 1.8684,6.01929 1.96079,2.77314 4.03115,6.73335 1.55437,2.9732 1.93132,6.36215 3.42874,9.35671 1.8643,5.88908 3.91717,11.70851 5.90492,17.55496 1.80081,6.36452 3.98373,12.792 3.05945,19.48696 -0.20523,1.93661 -0.75863,3.83731 -0.82679,5.78357 -0.0249,0.71086 0.33782,1.39496 0.34233,2.10624 0.0158,2.49329 -0.81232,4.99278 -1.20083,7.43101 1.37825,3.28306 0.29379,3.23658 0.7696,5.87759 0.3928,2.18027 3.05556,4.60804 2.07676,7.31076 0.79632,7.60578 1.86378,15.30722 0.509,22.91921 -0.71723,3.42967 -1.52288,6.29772 -1.4103,9.85726 0.0457,1.44315 0.78579,2.83056 0.71267,4.27258 -0.0802,1.58091 -0.88769,3.04542 -1.1628,4.60427 -0.28035,1.5885 -0.73533,7.70618 -0.87186,9.4062 -0.35427,1.65052 -0.70853,3.30104 -1.0628,4.95156 -0.0551,1.23111 0.0584,2.48144 -0.16526,3.69332 -0.29751,1.61233 -0.92469,3.14602 -1.38704,4.71903 -0.19831,1.04375 -0.40755,2.08547 -0.59491,3.13124 -0.28952,1.61604 -0.34074,3.28851 -0.8357,4.85389 -0.38703,1.22404 -1.18605,2.27718 -1.77907,3.41578 -0.52946,1.31937 -1.05892,2.63875 -1.58838,3.95812 0.0654,0.9254 0.4739,1.89108 0.19607,2.77621 -0.4548,1.44887 -1.78692,2.50288 -2.3016,3.93158 -0.48749,1.35319 -0.16888,2.91055 -0.65139,4.26552 -0.49794,1.39829 -1.49227,2.56628 -2.2384,3.84943 -0.44106,1.67327 -0.88211,3.34655 -1.32317,5.01982 -0.55367,0.79714 -4.1339,5.81835 -4.66036,7.03669 -0.71203,1.64778 -0.79092,3.54019 -1.60319,5.14092 -0.76634,1.51019 -2.18466,2.6055 -3.06253,4.05371 -7.53968,12.43797 2.84714,-2.11562 -5.54085,9.19547 -1.17711,1.5537 -2.27409,3.17149 -3.53131,4.6611 -0.88441,1.04788 -2.08499,1.81983 -2.88092,2.9364 -0.77378,1.0855 -1.07314,2.44962 -1.76893,3.58668 -2.60399,4.25543 -6.1869,7.4549 -8.94805,11.58157 -3.11845,3.51651 -5.79197,5.1171 -9.62029,7.82541 -3.6749,2.59979 -7.01285,5.71418 -11.19096,7.56802 -46.34365,26.76587 -92.66941,53.56275 -139.03095,80.29763 -2.58217,1.48903 -5.12663,3.05987 -7.81883,4.33929 -4.39288,2.08762 -9.26078,2.50503 -13.48701,5.00017 -16.99988,6.72968 11.43346,-4.38049 -9.22275,3.10631 -1.41838,0.51409 -2.7006,1.36448 -4.12355,1.86577 -1.39824,0.49259 -2.91557,0.59594 -4.30805,1.1046 -1.41718,0.51768 -2.65424,1.46645 -4.08016,1.95953 -1.61368,0.55801 -3.32375,0.78361 -4.98562,1.17541 -8.97067,2.99125 -18.09608,5.40848 -27.29682,7.54577 -2.87117,0.15702 -5.72544,0.58802 -8.59935,0.6824 -2.66069,0.0874 -5.32925,-0.006 -7.98367,-0.20791 -1.06201,-0.0809 -2.08077,-0.51425 -3.14454,-0.56709 -1.24093,-0.0616 -2.48034,0.15073 -3.72051,0.2261 -13.81541,0.87593 4.38686,0.0182 -7.08619,-0.26176 -5.36228,-0.13087 -10.78369,1.41496 -16.18537,0.80066 -5.57028,-0.0453 -2.69875,-0.14042 -8.61287,0.33329 -1.28439,-0.0102 -2.54457,-0.41842 -3.82892,-0.4327 -1.51692,-0.0169 -3.02151,0.3634 -4.53834,0.33964 -12.22647,-0.19151 5.65453,-1.10952 -8.37594,-0.16301 -9.40267,-1.22785 2.11787,0.0216 -8.67605,-0.20935 -2.92282,-0.0625 -5.83772,-0.43451 -8.72465,-0.89545 -1.33232,-0.21273 -2.59836,-0.77673 -3.93836,-0.93401 -1.5371,-0.18042 -3.09492,-0.0488 -4.64238,-0.0732 -3.67871,-0.81136 -7.57028,-1.84961 -11.29815,-2.3404 -1.42011,-0.18696 -2.88174,0.0515 -4.29264,-0.19554 -0.1592,-0.0279 -7.49224,-2.42183 -7.63432,-2.4681 -3.79958,-0.80574 -6.57566,-2.16166 -10.21842,-3.35493 -1.23298,-0.40388 -2.50905,-0.66186 -3.76357,-0.9928 -0.96224,-0.0391 -1.95471,0.12533 -2.8867,-0.11721 -1.24888,-0.32501 -2.36318,-1.03767 -3.54477,-1.5565 -6.04151,-2.48139 -12.27321,-4.08275 -18.2149,-6.76422 -6.24794,-2.88783 -12.43163,-5.87563 -18.45474,-9.21414 -5.83866,-3.65152 -12.41108,-6.09922 -17.91106,-10.32933 -4.78377,-2.65245 -8.70264,-6.14809 -13.24151,-9.16638 -1.4145,-0.94062 -2.99676,-1.63851 -4.31895,-2.705 -1.09155,-0.88046 -1.90665,-2.05705 -2.85998,-3.08558 -4.88169,-6.82645 0.39478,0.0387 -5.47062,-6.07509 -2.97933,-3.1055 -5.08389,-6.9888 -7.88301,-10.24457 -1.84999,-1.3671 -3.90033,-2.49305 -5.56595,-4.0796 -3.17806,-3.02716 -5.14454,-6.78017 -9.63636,-8.52189 -3.0542,-2.53433 -6.04397,-5.32622 -8.86938,-8.10695 -11.21858,-11.04119 6.05351,5.06394 -5.3029,-6.34368 -0.82539,-0.82911 -1.84044,-1.44482 -2.76066,-2.16723 -3.58216,-7.12596 -9.42672,-12.34129 -14.09386,-18.74425 -0.86003,-1.18585 -1.61935,-2.45172 -2.58011,-3.55754 -3.57869,-4.11902 -2.34981,-0.76772 -5.95196,-6.50529 -2.57925,-4.10828 -4.01137,-9.06548 -6.58996,-13.20374 -0.99243,-1.37636 -2.20424,-2.61855 -2.97729,-4.12908 -0.29928,-0.58479 -3.44267,-9.9458 -3.69465,-10.67469 -1.11411,-3.22271 -2.60597,-6.30779 -3.69211,-9.54003 -0.59569,-1.77273 -0.94615,-3.61863 -1.41922,-5.42794 -0.0106,-0.0463 -2.20659,-9.62131 -2.24106,-9.94137 -0.15764,-1.46356 0.26268,-2.95612 0.0703,-4.41553 -0.18065,-1.37076 -0.86735,-2.62989 -1.17644,-3.97751 -1.49949,-6.53761 0.73922,-0.45776 -1.96067,-6.86074 -4.49211,-11.24207 0.63532,3.04574 -1.57308,-8.01803 -0.53546,-2.68259 -2.63595,-4.87384 -3.23046,-7.54397 -0.30904,-1.38803 0.17405,-2.87792 -0.14555,-4.26355 -0.30742,-1.33283 -1.13291,-2.49004 -1.69936,-3.73505 -0.0357,-0.24176 -1.22453,-8.42838 -1.38966,-9.0805 -0.36085,-1.42502 -1.22245,-2.71337 -1.4456,-4.16633 -0.22155,-1.44258 0.40266,-2.94196 0.13358,-4.37644 -2.79002,-14.87371 -1.36368,6.21053 -2.01263,-9.59891 -0.28058,-3.38373 -1.046,-6.72632 -1.16023,-10.11974 -0.10583,-3.14391 0.74582,-6.2648 0.71045,-9.41029 -0.0191,-1.70059 -0.30536,-3.3881 -0.41169,-5.08547 -0.0882,-1.40736 -0.11444,-2.81792 -0.17166,-4.22688 0.35106,-3.96953 1.05979,-8.23514 0.54373,-12.22659 -0.15473,-1.19678 -0.74549,-2.32034 -0.82804,-3.52425 -0.98245,-14.32898 1.26986,2.1018 -0.13657,-7.36242 0.53697,-3.98177 -0.23222,-5.53935 -0.0934,-9.04964 0.12166,-3.07716 1.13075,-6.19379 0.7735,-9.33242 0.0637,-0.95509 0.31263,-1.91578 0.19126,-2.86527 -0.10052,-0.78642 -0.65363,-1.45433 -0.84185,-2.22448 -0.48462,-1.98293 -0.93988,-3.99582 -1.04211,-6.03455 -0.0656,-1.30731 0.27487,-2.60863 0.26972,-3.91757 -0.005,-1.15981 -0.19918,-2.31107 -0.29876,-3.4666 -0.15215,-2.53254 0.0184,-5.08327 -0.23498,-7.60769 -0.1211,-1.20652 -0.66861,-2.35154 -0.73772,-3.56215 -0.23906,-4.18745 1.07749,-8.47917 -0.45492,-12.60395 0.45519,-4.52618 0.57453,-9.19903 1.1729,-13.69809 0.19811,-1.48958 0.78115,-2.91804 0.91065,-4.41514 0.0945,-1.09279 -0.3473,-2.1894 -0.24489,-3.28147 0.12867,-1.37214 0.62026,-2.68563 0.93039,-4.02844 -0.68933,-5.24914 -0.3065,-0.28832 0.17906,-6.30715 0.30959,-3.83762 -0.3729,-7.75265 -0.22335,-11.59528 -0.19243,-6.15457 -0.60716,-12.34219 0.0247,-18.48278 0.55647,-2.70698 0.75176,-4.90079 0.4246,-7.64526 -0.0899,-0.75438 -0.41531,-1.4894 -0.37522,-2.24805 0.38865,-7.35595 1.10161,1.95423 0.38309,-4.87124 -0.18229,-0.72237 -1.00459,-3.32458 -0.92099,-4.53854 0.0414,-0.60179 0.50565,-1.18834 0.35945,-1.77356 -0.10744,-0.43011 -0.8524,-0.44565 -1.01669,-0.85741 -0.46464,-1.16453 0.40621,-2.63916 -0.61744,-3.7104 -0.0655,-1.51431 -0.45373,-3.00657 -0.47682,-4.52213 -0.0143,-0.93568 0.3771,-1.85852 0.30082,-2.7912 -0.14423,-1.7636 -1.60044,-5.65615 -1.38555,-7.65649 -1.60365,-6.75925 1.00952,-13.54472 -0.23914,-20.34781 0.82262,-6.6495 -0.38486,-13.37301 0.8875,-20.00631 0.31648,-1.12706 0.87351,-2.21299 0.94943,-3.38118 0.10169,-1.56489 -1.74497,-2.93939 -0.71841,-4.64939 0.33076,-2.57723 1.54038,-5.12245 1.57004,-7.78068 0.54617,-3.44099 -0.0728,-6.71927 0.35838,-10.1394 -2.80908,-3.00989 -0.71025,-7.83219 -1.20157,-11.32629 0.25719,-1.62971 0.93084,-3.22004 0.88784,-4.86937 -0.014,-0.53773 -0.45408,-0.98169 -0.58901,-1.5024 -0.60493,-2.3346 0.0221,-4.56732 0.28084,-6.90365 0.45695,-3.99153 0.32429,-7.98116 0.54904,-11.98641 0.6505,-3.58284 2.36747,-6.35414 1.45654,-10.14282 -1.05802,-5.26877 0.98896,-10.41785 0.54792,-15.62479 0.11308,-2.58719 -0.0303,-4.82714 0.67801,-7.35765 0.22973,-0.82069 0.55486,-1.61163 0.8323,-2.41745 0.35461,-0.5749 0.87278,-1.07681 1.06384,-1.7247 0.24105,-0.81744 0.13097,-1.69944 0.19646,-2.54916 0.27194,-4.86865 -0.33516,-9.71029 0.97767,-14.50483 0.48676,-2.62845 0.064,-1.28308 1.40476,-3.9906 0.94301,-3.62528 0.21541,-7.70466 1.49946,-11.30046 0.58934,-0.15836 1.42379,0.0288 1.76802,-0.4751 0.50065,-0.73285 1.64103,-12.33122 4.04189,-9.02044 1.07752,-3.30872 1.49734,-4.36335 0.37455,-7.62831 -0.20293,-3.47976 -2.88457,-7.5357 2.73382,-6.8823 -1.35699,-2.3226 0.39704,-7.19549 2.26464,-9.03603 0.0479,-0.9065 -0.22745,-5.63276 0.588,-6.28645 0.51584,-0.41351 1.47181,0.82609 1.94887,0.36838 0.13029,-0.12501 0.18491,-3.97815 0.1927,-4.34407 0.36745,-1.68097 0.58074,-3.14815 1.30014,-4.71519 0.2232,-0.48618 0.71101,-0.84133 0.85969,-1.35521 0.18463,-0.63813 0.48342,-4.93216 0.94257,-5.63438 0.3987,-0.60976 1.26666,-0.72019 1.9,-1.08029 0.52233,-2.37234 0.75433,-4.01355 1.75295,-6.24474 0.4148,-0.92676 1.11431,-1.71216 1.4982,-2.65214 1.20582,-2.95254 1.36422,-6.15917 4.00848,-8.40553 0.42734,-0.84996 0.74037,-1.7678 1.28203,-2.54988 1.67831,-2.42325 1.88906,-1.10855 2.8568,-3.81237 0.39423,-1.10146 0.24705,-2.39872 0.83869,-3.40797 5.05698,-8.62648 0.42442,4.41571 3.49667,-5.52024 1.60473,-3.18673 3.75211,-5.04655 5.45485,-8.04785 1.57611,-2.7781 2.21361,-5.2581 5.58771,-6.43604 2.85815,-6.40403 7.44874,-11.34601 12.15269,-16.46363 1.86773,-2.79005 4.27091,-4.53578 6.38519,-7.17398 0.78134,-0.97494 1.54359,-1.96608 2.27086,-2.982 0.72223,-1.00889 1.12227,-2.2958 2.07573,-3.08978 1.24067,-1.03315 2.86903,-1.48164 4.30354,-2.22247 1.44936,-1.87907 2.57259,-4.00819 4.12891,-5.79967 0.99373,-1.14387 4.54467,-3.85134 5.61993,-4.96009 1.09367,-1.12775 1.95916,-2.46232 3.04933,-3.59345 0.84748,-0.87933 1.83242,-1.61494 2.74863,-2.42241 2.11707,-1.77599 5.09809,-3.51724 7.0238,-5.26244 0.70718,-0.64089 1.06715,-1.6189 1.80915,-2.21914 0.79442,-0.64265 1.80572,-0.957 2.70858,-1.4355 0.90063,-0.76981 1.80125,-1.53963 2.70188,-2.30944 1.65236,-1.27622 2.98988,-2.46469 4.87667,-3.36965 0.64747,-0.31054 1.41868,-0.33176 2.04044,-0.69102 44.31379,-25.60498 88.53093,-51.37707 132.72948,-77.180459 1.01931,-0.59507 1.9435,-1.33986 2.91525,-2.00979 -42.69605,24.651969 -85.39209,49.303939 -128.08814,73.955909 44.85272,-25.79518 89.63617,-51.71118 134.55818,-77.385529 1.08796,-0.6218 2.32296,-0.94532 3.451,-1.49107 3.53837,-1.71187 7.06093,-3.611963 10.76319,-4.975246 1.18468,-0.436233 2.43251,-0.676708 3.64876,-1.015062 4.29253,-1.019931 2.1395,-0.39773 6.45277,-1.888298 2.94342,-0.758743 5.9657,-0.907859 8.90646,-1.439064 0.83641,-0.151087 1.61583,-0.527995 2.42374,-0.791993 3.31541,-0.891575 1.61325,-0.593644 5.10996,-0.873637 4.02081,-1.022006 6.43783,-5.185501 11.1281,-3.923103 7.38789,-2.243347 14.8354,-3.832117 22.34891,-5.582252 8.59739,-1.599428 17.26153,-2.628016 25.98788,-3.197542 6.41751,-1.085036 17.55197,-4.013 23.71336,-1.088082 0.70901,0.336577 1.04439,1.171816 1.56658,1.757724 0,0 -120.52648,87.567614 -120.52648,87.567614 z"
       inkscape:connector-curvature="0" />
    <path
       style="fill:#999999"
       id="path26"
       d="m 723.51346,532.36557 c 1.87424,3.33321 4.27824,6.71354 5.08034,10.53213 0.37509,1.78571 0.17512,3.6468 0.35732,5.46236 0.95443,9.51056 0.93123,1.9049 0.49725,11.78984 -0.17346,6.32788 1.6784,12.56415 1.80362,18.85848 0.0464,2.33114 -0.50538,4.6481 -0.46477,6.97934 0.0397,2.28011 0.4699,4.53663 0.70485,6.80494 0.0208,2.38987 0.0416,4.77973 0.0625,7.1696 0.63213,14.96963 0.13716,-0.56792 0.12391,14.59638 -0.002,2.4308 0.37213,4.8682 0.16852,7.29046 -0.20621,2.45313 -1.09276,4.80951 -1.39106,7.25316 -0.0128,0.10501 -0.55706,12.649 -0.56648,12.8651 -0.66312,5.73849 -1.41361,11.48539 -1.94082,17.23601 -0.15307,1.66959 -0.006,3.36296 -0.22978,5.02451 -1.87832,13.92933 -0.59522,-3.47963 -1.35209,9.03941 0.0651,1.37202 0.28651,2.74554 0.19527,4.11608 -0.0933,1.40223 -0.71768,2.7445 -0.74551,4.14956 -0.0534,2.69503 1.19345,5.30157 1.20008,7.99712 0.0283,11.5314 -1.56158,-2.42711 6.1e-4,8.62129 0.55435,8.92002 1.28681,18.71263 -0.54773,27.50423 0.58109,3.84903 1.6875,8.39473 2.07211,12.22134 0.13933,1.3863 -0.24998,2.80297 -0.0358,4.1797 0.47577,3.05897 1.8005,5.92486 2.61316,8.91204 0.007,1.3844 -0.20513,2.78762 0.0225,4.15321 0.80972,4.85808 3.324,9.37075 3.80603,14.36387 0.91017,9.42804 -1.70756,0.0297 1.2473,8.81672 0.44859,1.80409 1.14074,3.5646 1.34576,5.41228 0.19476,1.75512 -0.21199,3.53028 -0.1576,5.29534 0.1453,4.71607 0.67498,4.06912 1.34312,8.82081 0.45379,3.22723 0.433,5.92665 0.51654,9.16843 -0.97446,4.14056 1.13469,7.7325 1.649,11.66112 0.52881,4.03936 -0.0807,7.50778 0.69182,11.79841 0.3017,1.30248 0.79829,2.57476 0.90511,3.90746 0.20544,2.56306 -0.56034,5.12722 -0.49802,7.69774 0.0769,3.17079 0.5313,6.51453 0.79581,9.68606 0.64436,6.57064 1.05596,13.15866 1.30658,19.75503 0.22162,1.03358 0.44325,2.06716 0.66487,3.10073 -0.10175,1.08966 -0.43954,2.18285 -0.30527,3.26898 0.26374,2.13335 1.6637,3.96808 2.35334,6.00405 1.33322,3.9359 1.43013,4.83665 2.39279,8.98035 1.96026,11.43978 0.24288,-1.2767 0.36796,10.3163 0.0177,1.63698 0.52383,3.23799 0.61568,4.8725 0.25084,4.46396 -0.33934,9.03189 -0.48872,13.49511 -0.63765,3.75964 0.59118,7.81097 -0.0221,11.55217 -0.18353,1.11963 -0.97866,2.08048 -1.15746,3.20087 -0.14042,0.87998 0.24027,1.77323 0.22152,2.66414 -0.0177,0.84259 -0.22023,1.6711 -0.33035,2.50665 -0.48054,1.474 0.48691,2.96993 0.25326,4.43066 -0.11898,0.74388 -0.79689,1.32879 -0.89343,2.07591 -0.073,0.56467 0.46357,1.091 0.41094,1.65792 -0.89899,2.14638 -0.70114,1.10691 -0.77838,3.07747 0.98662,3.46981 0.0927,-0.1726 -0.24621,2.13718 -0.29441,2.00646 0.56313,0.66101 1.18191,1.58133 0.6126,0.91113 0.97503,1.96751 1.46254,2.95126 -1.17547,2.06064 0.74916,3.87499 0.74182,5.78521 -0.002,0.56532 -0.6066,1.02134 -0.59911,1.58661 0.0506,3.81953 1.70381,-1.61103 0.10148,2.62071 -1.38937,3.16872 -0.0885,-0.69716 0.19793,1.79 0.0478,0.41517 -0.38869,0.75588 -0.45395,1.16866 -0.56311,3.56166 0.90916,-2.14837 0.53706,1.94056 -0.0421,0.4626 -0.41268,0.8324 -0.61903,1.2485 0.20924,0.3218 0.6091,0.5821 0.62771,0.9655 0.0223,0.4593 -0.43696,0.8259 -0.51877,1.2785 -0.23878,1.321 0.71152,2.2933 0.15067,4.7338 0.83889,4.7543 -0.26379,-2.9632 -0.51861,2.3183 -0.0172,0.3554 0.59916,0.5132 0.6209,0.8684 0.076,1.2419 -1.14871,1.3583 -0.69193,2.6412 1.28215,1.1043 -0.27167,1.514 -0.40544,2.6008 -0.16851,1.3693 1.21403,0.5069 0.3286,2.2575 0.71148,1.5439 0.36101,2.711 0.15503,4.377 0,0 -127.47152,64.94994 -127.47152,64.94994 v 0 c -0.25111,-1.7752 -0.45161,-2.7316 0.15502,-4.5346 -1.08724,-1.0415 0.49164,-1.4336 0.32848,-2.5911 -0.1422,-1.0087 -0.94749,0.5707 -0.93941,-0.8256 0.003,-0.4871 0.35568,-0.907 0.53353,-1.3605 0.44155,-1.689 -0.76593,-0.66 -0.69292,-1.9356 0.0309,-0.5403 0.6481,-0.9599 0.62049,-1.5004 -0.0144,-0.2822 -0.48001,-0.2984 -0.72002,-0.4477 0.067,-0.4491 0.13396,-0.8983 0.20093,-1.3474 -0.60247,-2.0203 0.50199,-3.3166 0.15929,-4.9514 -0.0631,-0.3007 -0.52704,-0.4605 -0.51094,-0.7674 0.0316,-0.6025 0.42669,-1.1287 0.64004,-1.6931 -1.15765,-1.2179 0.19086,-1.9159 -0.003,-3.3742 -0.0358,-0.2699 -0.44465,-0.437 -0.40908,-0.7069 0.31161,-2.3647 1.31073,-1.0882 0.31015,-2.1062 -1.15415,-1.6024 0.11745,0.5664 0.18811,-2.2002 0.007,-0.2561 -0.59409,-0.2021 -0.61779,-0.4572 -0.12666,-1.3634 1.51742,-1.4089 -0.2107,-2.2134 1.94861,-1.7401 -1.82734,-4.8171 -2.41033,-6.2221 -0.90622,-2.184 -0.58509,-2.9332 -0.24054,-4.8155 -0.0177,-0.4084 -0.0354,-0.8168 -0.0531,-1.2252 -0.24561,-0.3056 -0.6874,-0.5278 -0.73683,-0.9167 -0.0807,-0.6353 0.50439,-1.2546 0.38101,-1.8831 -0.0904,-0.4601 -0.82984,-0.5819 -0.95378,-1.0342 -0.34554,-1.2609 0.59328,-2.6599 -0.0274,-3.9222 -0.19904,-0.5806 -0.48041,-1.1393 -0.59713,-1.7419 -0.14008,-0.7233 0.14762,-1.5377 -0.1671,-2.2037 -0.3462,-0.7327 -1.33415,-1.0162 -1.69679,-1.7409 -1.46193,-2.9213 -0.94406,-6.93544 -2.64329,-9.81764 -1.3086,-4.4642 -2.61928,-8.6936 -2.66726,-13.3965 -0.017,-1.6693 0.37558,-3.3398 0.22998,-5.0028 -1.19615,-13.6619 -1.40751,6.628 -0.85756,-9.51917 0.30777,-6.35741 1.32017,-12.89635 1.19914,-19.25455 -0.0176,-0.92636 -0.42427,-1.82238 -0.4123,-2.74882 0.0147,-1.13921 0.3277,-2.25493 0.49154,-3.3824 -0.31284,-5.89041 -0.99574,-11.73957 -2.41324,-17.4789 -0.31734,-1.57662 -1.30695,-6.25297 -1.39141,-7.7318 -0.0675,-1.18215 0.27681,-2.36188 0.22754,-3.54494 -0.14571,-3.4985 -2.09595,-6.62948 -0.85757,-10.21122 -0.15132,-4.93592 -1.51017,-5.80318 -2.30962,-10.09428 -0.74759,-4.01276 -0.0795,-8.37227 -1.67265,-12.27932 -0.98925,-4.18127 -1.56794,-8.26805 -2.28118,-12.49058 -0.26287,-1.55624 -0.67448,-3.08367 -1.01173,-4.6255 -0.44425,-1.28509 -1.07353,-2.5205 -1.33276,-3.85527 -0.30171,-1.5535 -0.22382,-3.15714 -0.33573,-4.73571 -0.2961,-1.84706 -0.59221,-3.69411 -0.88831,-5.54117 -0.58454,-1.53875 -1.44599,-2.99922 -1.75361,-4.61626 -1.19673,-6.29074 1.3645,-13.21022 -2.14883,-19.08751 0.003,-0.86003 0.0864,-8.03003 -0.13221,-9.01108 -0.30313,-1.3605 -1.31879,-2.4833 -1.67834,-3.82999 -1.20274,-4.50486 -1.12606,-9.52801 -1.36994,-14.13628 -0.50566,-1.41389 -1.27434,-2.75982 -1.51697,-4.24169 -0.25245,-1.54183 0.10123,-3.12508 0.0551,-4.68676 -0.18784,-6.36099 -0.72131,-12.77951 0.2306,-19.11453 1.82947,-14.80303 -0.0299,3.81614 6.2e-4,-8.62192 0.008,-3.09926 1.26271,-6.12141 1.20007,-9.22005 -0.0234,-1.15671 -0.6631,-2.23584 -0.74551,-3.38985 -0.10256,-1.43617 0.13018,-2.87671 0.19527,-4.31507 -0.84314,-13.08688 0.61071,4.89405 -1.35208,-7.66157 -0.24691,-1.57943 -0.0689,-3.19984 -0.22979,-4.79034 -0.51484,-5.09101 -1.2647,-10.18302 -1.94082,-15.25822 -0.009,-0.19439 -0.55366,-12.19586 -0.56648,-12.28783 -0.27612,-1.98055 -1.20798,-3.84429 -1.39105,-5.8356 -0.22778,-2.47758 0.17069,-4.97416 0.16852,-7.46219 -0.0135,-15.41142 -0.52115,1.21037 0.12391,-14.72265 0.0842,-9.75188 -0.16246,-4.83259 0.76731,-14.75646 0.0372,-2.17378 -0.50717,-4.33203 -0.46478,-6.50572 0.13469,-6.90732 1.92717,-13.7617 1.80362,-20.69646 -0.54706,-11.90317 1.19908,-22.84209 5.93492,-33.83232 0,0 132.7412,-67.63501 132.7412,-67.63501 z"
       inkscape:connector-curvature="0" />
    <path
       style="fill:#999999"
       id="path28"
       d="m 815.9151,912.30816 c -1.34159,-1.03016 -3.08259,-1.68569 -4.02475,-3.09046 -6.23802,-9.3009 -0.64652,-29.41131 1.34515,-39.51782 6.19772,-18.32439 14.423,-35.83746 22.24295,-53.49791 5.80488,-18.74366 13.56434,-36.80329 19.98,-55.34686 1.44077,-2.98661 2.96644,-5.93373 4.32233,-8.95982 1.20868,-2.69757 2.16408,-5.50375 3.36793,-8.20347 3.18574,-7.14421 7.11973,-14.10861 9.41365,-21.63569 0.6832,-2.24179 1.01748,-4.5754 1.52623,-6.86311 5.34512,-13.07803 10.45528,-26.55311 13.54328,-40.36758 1.90587,-7.42482 3.43758,-14.99326 5.80528,-22.29449 0.83235,-2.56671 2.01414,-5.01308 2.81298,-7.59041 1.6395,-5.28956 2.84553,-10.70638 4.46099,-16.00334 3.31489,-7.51783 4.74967,-15.59469 6.71029,-23.50703 2.07889,-8.38965 4.26921,-16.38932 5.62524,-24.94495 3.56752,-8.72366 3.60956,-18.18786 5.33321,-27.28388 0.65226,-3.44208 1.88777,-6.75876 2.50255,-10.20773 0.61055,-3.42524 0.48818,-6.95977 1.16586,-10.37236 0.74303,-3.74166 2.05503,-7.34747 3.08255,-11.0212 0.63143,-3.58722 1.02627,-7.22423 1.89431,-10.76166 1.75733,-7.16145 5.05051,-15.11241 7.19593,-22.16501 3.10716,-10.21406 5.40806,-20.69711 8.33426,-30.9688 3.65179,-9.21336 4.61341,-19.13173 7.10213,-28.64616 0.84852,-3.2439 2.13939,-6.36234 2.96617,-9.61186 1.13848,-4.47462 2.53325,-13.80763 3.25308,-18.27723 4.79917,-19.49757 9.20148,-39.0614 14.30041,-58.49409 4.73447,-17.28884 0.13355,-1.91172 6.26757,-18.64527 1.01095,-2.75786 1.71216,-5.62408 2.75174,-8.37128 0.96668,-2.55455 2.36635,-4.93653 3.26074,-7.51728 1.57155,-4.53475 2.49048,-9.27262 3.91948,-13.85429 0.89183,-2.21652 1.93706,-4.37732 2.6755,-6.64955 1.21564,-3.74062 1.77364,-7.66833 2.87997,-11.44271 1.5421,-5.26102 3.86173,-9.93998 5.19081,-15.24945 0.29804,-1.63409 0.38561,-3.32096 0.8941,-4.90225 0.48516,-1.50872 1.53072,-2.79112 2.06018,-4.28485 0.9529,-2.68806 1.5572,-5.49067 2.1717,-8.27563 0.3042,-1.37895 0.2023,-2.84006 0.609,-4.19235 0.3778,-1.25623 1.1446,-2.3608 1.7169,-3.54121 0.1944,-1.24752 0.3889,-2.49505 0.5834,-3.74257 0.2877,-1.19486 0.6714,-2.37059 0.863,-3.58456 0.2042,-1.29404 0,-2.64731 0.3208,-3.91704 0.298,-1.17283 1.1866,-2.13481 1.5125,-3.30015 0.4264,-1.52423 0.5332,-6.14132 0.5973,-7.60031 1.7299,-4.94645 2.2218,-10.26188 3.8479,-15.23597 1.9993,-6.11537 1.016,0.53475 1.6329,-6.29792 0.024,-3.49605 2.2516,-6.62717 2.7998,-9.9557 0.1816,-1.10248 -0.05,-2.2389 0.052,-3.3516 1.1831,-12.95923 0.074,6.8474 0.7681,-7.52043 0.3133,-1.14923 0.7554,-2.27088 0.9399,-3.44767 0.1072,-0.68326 0.4353,-8.28063 0.4751,-8.71286 0.4318,-4.68757 0.9402,-9.30121 1.8725,-13.91802 0.8025,-5.88302 3.7608,-11.14864 5.413,-16.76921 2.2153,-7.53587 -1.0492,-0.11746 2.3514,-7.0825 20.0948,-45.899159 86.139,-48.382139 130.3382,-69.304117 1.1836,-0.560259 1.6153,2.077153 2.5809,2.96174 0.7681,0.703684 1.9539,0.931795 2.5787,1.765283 0.8172,1.09011 1.0485,2.515025 1.5728,3.772538 0.6595,0.967987 1.3735,1.90103 1.9785,2.90396 0.7615,1.262163 1.3231,2.640445 2.116,3.883081 1.589,2.490242 5.9536,7.995166 7.2788,10.469966 9.5142,17.76829 -4.2967,-3.86322 7.3291,13.58563 4.1245,10.866809 10.0469,20.919359 15.0403,31.375719 6.7091,14.04902 -0.2407,2.35369 8.7313,16.17209 4.9121,12.84883 12.7708,24.07695 19.5499,35.92746 4.2519,7.43264 7.1758,13.322 11.1025,20.94832 5.3173,9.79529 7.4244,12.60545 10.8785,23.37706 1.0232,4.21436 4.4812,18.82126 5.8477,23.0185 8.4588,25.98088 0.027,-5.56591 6.6723,20.77111 6.8869,14.42973 7.1732,30.83531 11.9239,45.89139 0.8391,2.65924 2.0817,5.17385 3.1226,7.76077 2.9378,10.64401 7.7037,20.59382 12.0104,30.69911 1.1599,2.72136 2.1433,5.51456 3.2149,8.27185 1.2208,2.81483 2.4415,5.62966 3.6623,8.4445 5.2713,10.94379 8.6397,22.64272 13.0731,33.9142 8.2985,21.09834 -1.1536,-4.73481 6.4101,16.33574 7.8345,15.90351 13.4357,32.74673 18.51,49.6888 0.9699,2.55301 2.0841,5.05576 2.9097,7.65902 0.7762,2.44762 1.1174,5.01888 1.8877,7.46839 0.8237,2.61969 2.0191,5.11063 2.8869,7.71607 2.3366,7.01549 4.4412,14.16627 6.6334,21.23431 3.4882,13.80465 9.4912,26.93231 15.8168,39.66565 8.2564,15.08353 15.8297,30.51762 23.005,46.16909 1.5922,3.63015 5.718,12.74959 6.8318,16.4799 0.8205,2.7481 0.8654,5.69298 1.7238,8.42945 0.748,2.38422 2.053,4.55646 3.0666,6.84045 0.1773,0.39966 5.79,13.18361 5.9969,13.65485 3.1682,4.06836 2.1204,9.43369 3.9563,13.88086 0.8363,2.02575 2.6531,3.51811 3.6417,5.47406 1.1155,2.20696 1.6293,4.67542 2.6309,6.93636 5.9593,13.45283 0.1741,-2.65774 5.2766,12.60907 1.1537,1.91461 2.5152,3.71849 3.461,5.74383 1.4991,3.21001 3.2557,9.72088 4.5148,13.1936 1.5987,4.40969 4.0131,8.50074 5.5331,12.9382 0.754,2.20136 1.0594,4.53165 1.5891,6.79748 0.6606,1.92071 1.2689,3.86018 1.9816,5.76212 0.7989,2.13163 1.8912,4.1561 2.5518,6.33456 2.5525,8.41809 0.1736,4.27314 2.5695,11.78014 4.4353,13.89684 0.3986,-2.62134 3.5676,11.47623 1.7863,8.48789 1.9893,17.25359 5.5949,25.23077 0.472,1.0458 1.1316,2.02582 1.416,3.1374 2.4747,9.67368 -1.2627,-0.62962 1.0281,6.9433 0.8518,2.8161 1.8969,5.66213 2.8748,8.45493 0.4065,2.734 1.6044,5.30584 2.1036,8.01175 0.6606,3.58134 -0.8643,-0.13604 0.7951,4.62214 0.023,0.15865 0.6334,3.62481 0.3452,4.02756 -0.2126,0.29718 -0.8833,-1.13814 -0.7527,-0.7969 0.7143,1.86561 0.8196,0.89191 1.0278,0.25748 0,0 -123.4607,75.40532 -123.4607,75.40532 v 0 c -1.4825,-2.41693 -2.4997,-5.20435 -4.8681,-6.92118 -3.2156,-3.66708 -4.2802,-7.84153 -7.0752,-11.71979 -1.2739,-3.64814 -2.7951,-7.35698 -4.9258,-10.60309 -0.5026,-0.76558 -1.2818,-1.33844 -1.719,-2.1431 -0.6713,-1.23531 -1.0481,-2.60915 -1.5721,-3.91373 -2.3201,-8.11776 -8.2771,-14.74154 -11.7206,-22.42885 -2.9792,-6.44832 -1.6246,-3.07558 -4.0113,-10.13915 -0.8697,-1.94526 -2.1405,-3.68829 -3.0934,-5.59419 -2.8874,-5.77529 -3.9194,-12.05047 -6.8996,-17.79022 -5.2213,-11.69429 -0.048,0.64916 -4.3515,-12.23682 -2.9143,-8.72693 -8.9566,-16.08031 -10.89,-25.23449 -2.8717,-6.036 -5.669,-12.14952 -7.8583,-18.47551 -0.7997,-2.31048 -1.1245,-4.79791 -2.1794,-7.00359 -1.8314,-3.82916 -5.8112,-6.38578 -7.0519,-10.60274 -2.6885,-4.4582 -5.4491,-8.87295 -7.8361,-13.5063 -1.2795,-2.48365 -2.2333,-5.13194 -3.596,-7.57093 -1.2389,-2.21738 -2.9337,-4.15711 -4.19,-6.36466 -2.9425,-5.17046 -4.8997,-10.86405 -8.0515,-15.92801 -6.616,-16.25384 -12.8997,-32.64143 -17.963,-49.4567 -1.5295,-4.80371 -2.8988,-9.42037 -4.7809,-14.10162 -3.5683,-8.87539 -2.4583,-4.36651 -5.6227,-13.50284 -0.8133,-2.34812 -1.3461,-4.78803 -2.1771,-7.12993 -0.732,-2.06268 -1.671,-4.04593 -2.5065,-6.06889 -1.8368,-4.42602 -3.419,-8.95817 -5.3599,-13.33955 -1.0629,-2.39955 -2.5225,-4.618 -3.4899,-7.05761 -0.9232,-2.3277 -1.1931,-4.88534 -2.162,-7.19435 -9.8811,-23.54785 2.0572,10.33211 -6.4657,-14.91467 -6.555,-15.89591 -14.7393,-31.09734 -19.8886,-47.55905 -4.0914,-8.1072 -7.1759,-16.40674 -10.7379,-24.746 -0.569,-1.33218 -7.2431,-16.09825 -7.5902,-17.04297 -1.1085,-3.01703 -1.8143,-6.16712 -2.7214,-9.25068 -3.9458,-16.52376 -10.1862,-32.49733 -16.4439,-48.26928 -0.8618,-2.65526 -1.5111,-5.38918 -2.5854,-7.96579 -1.0702,-2.56652 -2.6024,-4.91594 -3.8267,-7.41259 -13.7998,-28.14052 6.1016,11.88376 -7.1499,-15.97483 -9.413,-19.78905 0.6242,3.67515 -8.3813,-18.09404 -9.4827,-17.65385 -0.5076,-0.12625 -9.1324,-19.72736 -16.7541,-38.07635 8.5364,20.8016 -10.7728,-19.98311 -1.9027,-4.0188 -7.0094,-19.76149 -8.3587,-23.8063 -3.6976,-10.18775 -4.6892,-12.51148 -7.8394,-22.77976 -3.9893,-13.00343 -7.521,-26.26971 -14.1642,-38.2598 -5.5895,-17.06101 0.059,-1.69288 -7.3207,-17.1097 -5.1594,-10.77832 -8.6955,-22.30002 -13.3725,-33.28079 -1.2516,-5.52952 -2.9943,-10.9483 -4.0577,-16.51708 -1.7349,-9.08524 -1.1682,-18.63455 -0.7989,-27.79557 0.3101,-0.91054 2.3045,-6.89341 2.662,-7.3418 0.4251,-0.53327 1.4022,-0.08 2.0078,-0.39364 42.5046,-22.01084 118.6911,-112.729537 127.6777,-65.715066 1.3675,1.580376 -0.087,-0.436392 0.4248,2.70424 0.1654,1.015845 0.7763,1.91907 0.9806,2.927812 0.806,3.979766 0.9567,8.262788 -0.071,12.196735 -1.0773,10.02654 0.2859,-0.52682 -1.8281,9.98157 -0.3653,1.81594 -0.3579,3.70386 -0.8334,5.49411 -1.1714,4.41059 -3.9442,8.23012 -3.1548,13.100749 -2.8811,6.88221 -3.9443,14.07552 -5.3876,21.33793 -3.1011,9.57799 0.3516,-2.38396 -1.124,7.28472 -0.1527,1.00041 -0.8047,1.86834 -1.0377,2.85315 -0.8743,3.69557 -1.2051,7.63762 -1.6161,11.40043 -1.0932,2.22056 -2.5734,4.64685 -2.8058,7.21197 -0.1087,1.2005 0.5248,2.41224 0.3275,3.60139 -0.2173,1.30952 -1.1722,2.39767 -1.5349,3.67459 -0.6626,2.33263 -0.2677,4.89969 -1.4223,7.13433 0.1321,1.22811 0.565,2.46069 0.3964,3.68432 -0.1883,1.36585 -1.1111,2.53878 -1.4386,3.87806 -0.3047,1.24557 -0.235,2.55606 -0.4446,3.8211 -0.2197,1.32533 -0.7588,2.60048 -0.8419,3.94131 -0.084,1.36397 0.5392,2.73261 0.3445,4.08526 -0.2275,1.58097 -1.0556,3.01507 -1.5834,4.52261 -2.92,15.53126 0.9511,-6.79611 -0.7299,9.2774 -0.7161,6.84729 -4.6101,13.31867 -3.4349,20.31817 -0.1529,2.25608 -0.3058,4.51215 -0.4587,6.76822 -0.4988,2.16517 -1.2947,4.28279 -1.4963,6.4955 -0.2055,2.25396 0.4667,4.52778 0.2861,6.78387 -0.2048,2.55946 -1.097,5.0228 -1.4346,7.56815 -2.2204,16.73942 1.6781,-2.05585 -2.6782,16.64403 -2.018,9.54191 -3.5108,19.30886 -5.863,28.76964 -2.4045,9.67112 -6.1613,19.03499 -7.4651,28.98229 -5.2452,18.76179 -10.0593,37.64222 -12.8855,56.94521 -0.9992,4.44349 -3.3618,14.73975 -4.1609,19.15609 -2.6472,14.63068 -3.7946,29.6214 -9.9305,43.40757 -3.7143,14.29661 -1.4688,7.00686 -6.8739,21.8265 -0.9572,3.28935 -1.2128,6.75069 -2.0834,10.06402 -2.6394,10.04464 -7.1616,19.42306 -9.3903,29.57833 -1.0247,3.08192 -2.222,6.11172 -3.074,9.24576 -3.6943,13.58808 0.1566,4.45614 -4.4632,17.83455 -2.3249,6.73269 -4.2136,9.30581 -6.0327,16.03386 -0.6853,2.53486 -1.0032,5.15504 -1.5048,7.73256 -0.8466,2.70108 -1.599,5.43351 -2.5398,8.10324 -0.9012,2.5574 -2.2695,4.95201 -2.9828,7.56806 -0.7211,2.64443 -0.5737,5.47592 -1.2948,8.12033 -2.2455,8.23436 -6.8148,15.82122 -9.5132,23.89692 -2.9785,7.12579 -3.0223,6.44894 -4.8022,13.36312 -0.6531,2.53709 -0.9806,5.16028 -1.7794,7.65531 -2.0894,6.52534 -6.046,12.41497 -6.124,19.54647 -1.1936,2.43388 -2.6057,4.77229 -3.5808,7.30166 -0.6807,1.76578 -2.9497,11.65126 -3.3349,13.32043 -1.0709,4.64069 -2.3877,9.22379 -3.3972,13.87824 -0.5442,2.50905 -0.8768,5.05934 -1.3153,7.58901 -6.4793,19.07552 -10.4836,39.1277 -20.5103,56.84202 -6.81002,17.42237 -14.86618,34.27778 -21.45567,51.78387 -4.21393,8.89306 -4.55379,9.04212 -7.80256,18.00766 -1.06366,2.93534 -1.80465,5.98718 -2.97943,8.87984 -3.27695,8.06881 -4.07438,8.00863 -8.3591,15.2576 -1.39786,2.36493 -2.68317,4.79459 -4.02475,7.19188 0,0 -133.88409,68.21736 -133.88409,68.21736 z"
       inkscape:connector-curvature="0" />
    <path
       style="fill:#999999"
       id="path30"
       d="m 943.51621,496.7728 c 16.96082,-5.43481 34.81376,-5.57773 52.4011,-6.91448 21.57449,-0.2164 43.10039,-1.46711 64.63669,-2.71622 16.5156,-0.0426 33.0569,-1.31017 49.5748,-0.94767 3.3527,0.0736 20.8203,1.11934 24.2894,1.32112 3.6934,0.52528 7.3635,1.25587 11.0804,1.57585 4.2213,0.36342 8.4873,0.0387 12.7021,0.47157 12.8023,1.31472 25.0148,5.58687 37.6121,7.83708 8.0659,0.30054 15.9583,2.43442 23.9508,3.2328 2.8184,0.28153 5.6692,0.0983 8.4896,0.35885 2.288,0.21138 4.5414,0.70318 6.812,1.05477 2.3976,0.16193 4.7952,0.32386 7.1929,0.48579 11.2907,0.30114 22.3855,3.76281 33.6704,4.00519 2.5074,0.0539 5.0112,-0.21601 7.5168,-0.32401 2.07,0.13938 4.1489,0.18044 6.2099,0.41815 2.1075,0.24308 4.1712,0.80782 6.2818,1.02262 6.8238,0.69446 5.5479,-0.16995 13.0852,-0.48535 16.233,-0.67929 -5.9731,1.54154 14.7456,-0.89657 14.4601,-0.006 28.8977,-0.0218 43.3628,-0.19401 11.2922,1.87043 22.6463,3.09596 33.8315,5.65352 8.2092,1.81285 16.4351,2.76643 24.77,3.73186 1.3511,-0.0182 2.7042,-0.13073 4.0533,-0.0547 1.661,0.0936 3.2976,0.47725 4.959,0.56276 1.8727,0.0964 5.5229,-0.34257 7.4401,-0.0781 2.436,0.33598 4.7623,1.22838 7.1494,1.819 2.6899,0.10784 4.7613,1.66305 7.3652,2.06318 0.7481,0.11496 1.5284,0.01 2.2623,0.19493 4.7477,1.19672 1.2808,1.46477 5.1359,0.75048 2.9219,-1.34756 5.1497,0.9552 7.7574,1.49121 0.9565,0.19659 1.9898,-0.24159 2.9293,0.0244 6.0279,1.70673 0.2009,1.76656 4.5672,1.47428 0.7,-0.0876 1.4166,-0.43768 2.1,-0.26268 1.5464,0.39599 4.215,2.38773 5.904,2.98642 2.0117,0.27064 1.1056,0.0194 2.7428,0.65954 1.3876,0.31568 3.3148,-1.10437 4.6151,-0.30239 3.0041,1.85274 1.1393,2.70352 2.7148,0.93969 1.1664,-0.72863 2.5769,-0.71624 3.891,-0.45968 0,0 -114.8521,84.66795 -114.8521,84.66795 v 0 c -1.9895,0.50018 -4.0263,0.78578 -6.0605,0.3111 -0.8421,-0.43565 -2.8202,-1.60473 -3.7992,-1.42714 -0.4521,0.082 -0.3648,0.96773 -0.7965,1.12506 -1.8003,0.65611 -3.8483,-1.10689 -5.5438,-1.33436 -2.7349,-0.25125 -5.4903,-1.25444 -8.2625,-1.11454 -0.7006,0.0354 -1.3476,0.51824 -2.0483,0.48352 -0.95,-0.0471 -1.8405,-0.48119 -2.7608,-0.72178 -9.6742,-3.08392 2.0269,0.21637 -5.1082,-0.77019 -0.812,-0.11228 -1.5118,-0.69883 -2.3251,-0.80134 -2.504,-0.31559 -5.0503,1.10841 -7.5132,-0.17734 -5.836,-1.69627 -12.0392,-0.63166 -18.0714,-0.97675 -8.0929,0.0833 -16.1207,0.60085 -24.1855,-0.75351 -9.778,-0.0616 -19.5397,-0.95574 -29.2822,-1.72003 -8.3086,-0.0711 -16.6179,0.23877 -24.9265,0.11793 -2.2269,-0.0324 -4.4482,-0.33827 -6.675,-0.29613 -2.4265,0.0459 -4.8395,0.37323 -7.2593,0.55984 -14.544,-0.0668 -29.0629,0.12683 -43.5951,0.46835 -14.6009,-2.09687 2.8451,0.0631 -13.0302,-0.71515 -2.0396,-0.1 -4.0382,-0.63602 -6.0736,-0.80096 -6.7979,-0.55089 -13.6154,0.0173 -20.4201,-0.15793 -14.2888,-2.02753 -28.8491,-0.93402 -43.2157,-2.35809 -5.5495,-0.16995 -11.1093,0.0961 -16.6555,-0.15843 -2.7444,-0.12595 -5.4547,-0.69211 -8.1968,-0.86079 -9.1726,-0.56425 -18.4177,-0.26001 -27.5881,-0.98527 -15.175,-0.6879 -30.4603,-0.39294 -45.6104,-1.50272 -3.8098,-0.27907 -7.56962,-1.10056 -11.38292,-1.32629 -4.05192,-0.23985 -8.1179,-0.0456 -12.17685,-0.0683 -23.80842,-0.47889 -47.62466,-0.37474 -71.42486,-1.2536 -19.04172,-1.31426 -38.0677,-2.56626 -57.15952,-2.71622 -5.09659,-0.48987 -10.18516,-1.0719 -15.28977,-1.46967 -6.3605,-0.49563 -13.55451,-0.0991 -18.07738,-5.44482 0,0 121.56421,-88.32157 121.56421,-88.32157 z"
       inkscape:connector-curvature="0" />
  </g>
</svg>
